#!OML:ASF F:\VICON\USERDATA\INSTALL\rory3\rory3.ASF
:FULLY-SPECIFIED
:DEGREES
59
root -4.982085541736575 18.010865835309392 -4.2270355609298 -174.5919856672765 -10.519113483622057 -181.91482067310147
lfemur -28.584380858945643 -20.0501734904218 -12.139392790803289
ltibia 27.473958501323146
lfoot 28.341501090256592 -46.5482782395743
ltoes 51.87726010906709
rfemur 20.484767290926552 -11.09715290967656 23.866116904498483
rtibia 7.244069784295924
rfoot 38.48214114594255 -36.241880113469705
rtoes 26.45165227677192
lowerback -12.862347689881776 17.840367529830477 15.922110104572265
upperback -17.346203548618394 20.461940833068873 -0.12615180323462694
thorax -7.479071046558813 7.808385902323587 -6.687381670220045
lowerneck -10.667489263712225 -20.621560559319708 -5.0047521965897985
upperneck 13.06624943339297 -28.101306283377696 2.678624987372264
head 6.724951729409296 -13.640902327993093 -1.0054836037894395
lclavicle 1.0484241514707123e-14 -5.268543906470788e-15
lhumerus 72.12976726047192 30.473262758224024 48.33834878856631
lradius 72.85172109671781
lwrist 16.75736505453377
lhand -24.987658202640812 12.38809208406396
lfingers 7.12502
lthumb -178.4695546067633 -30.771762477956358
rclavicle 1.0484241514707123e-14 -5.268543906470787e-15
rhumerus 115.4569745294955 25.816675985612708 -52.85152108471277
rradius 72.20621326342474
rwrist 3.4045379068100363
rhand -46.07908323975951 25.486949879739893
rfingers 7.12502
rthumb -18.8269341467616 -3.594928903119089
60
root -4.952411708644896 18.02318891427929 -4.1991416908995545 -174.88522333252092 -10.107544504570612 -182.35362888229008
lfemur -28.56305568806105 -19.637303392103394 -12.250500785066349
ltibia 27.09169402949613
lfoot 28.066875785739043 -46.39884468719669
ltoes 51.813063715248994
rfemur 19.789470488428663 -10.45972228201307 23.81469958443934
rtibia 8.13897515803575
rfoot 37.65802444741561 -36.24546591356712
rtoes 26.15364898541916
lowerback -12.701267171479241 17.06927318763628 15.938756451161904
upperback -16.809098130878883 20.04031542127321 0.250933635662717
thorax -7.217919622972971 7.8812704515157135 -6.444035560194452
lowerneck -11.316849806976485 -20.19147412866703 -4.65121186069319
upperneck 13.107177309314626 -27.438011535402097 2.1647327373855614
head 6.685559823409063 -13.32493795162199 -1.1392512017125263
lclavicle 1.0190575315381847e-14 -5.539026195251595e-15
lhumerus 71.52889801762338 28.503869580379067 46.43552486416222
lradius 69.53102591973519
lwrist 18.656104098847763
lhand -23.57576556731417 12.45267832951278
lfingers 7.12502
lthumb -177.10805088333055 -28.057801593823513
rclavicle 1.0190575315381848e-14 -5.539026195251595e-15
rhumerus 113.73512609004818 25.549317865503685 -53.42092096201689
rradius 69.45808189842646
rwrist 0.46981586082541504
rhand -45.0531912715882 24.33099864194389
rfingers 7.12502
rthumb -17.838738686204255 -4.76528625907677
61
root -4.916649969077217 18.037677065974798 -4.144017205585355 -174.6186299073501 -9.348381069899276 -182.2114779367751
lfemur -28.475882621121244 -19.116677947111235 -12.340270320136796
ltibia 26.80415371618887
lfoot 27.613592693519138 -46.00621965455557
ltoes 51.55488195476503
rfemur 19.067338984382463 -9.754795871934773 23.69604564339436
rtibia 9.16965334386121
rfoot 36.79958309227412 -36.03377198290592
rtoes 26.014682784547226
lowerback -12.472650561868004 16.212527755951726 15.926474195728265
upperback -16.172867381383558 19.629234583857265 0.669287112990581
thorax -6.932693737994378 8.019717973564198 -6.126858458477132
lowerneck -11.916120018744248 -19.57801110207971 -4.282927592351909
upperneck 13.092854306648533 -26.526073874767548 1.7095717693448398
head 6.627909531608169 -12.890371497330184 -1.251381387811659
lclavicle 1.0222470812068324e-14 -5.536238573394201e-15
lhumerus 71.07554068911766 26.158100989762644 45.03746153221664
lradius 66.35505387669879
lwrist 20.565046163639074
lhand -22.14785683346496 12.737322351112594
lfingers 7.12502
lthumb -175.73167798093087 -23.3975209131886
rclavicle 1.0222470812068324e-14 -5.5362385733942e-15
rhumerus 112.01719766341283 25.50617161588854 -53.7929344258842
rradius 66.6985223926131
rwrist -2.2284162973002495
rhand -44.1268770467382 23.283081140483787
rfingers 7.12502
rthumb -16.946106808332996 -5.819802048235872
62
root -4.881363928729829 18.05324840798202 -4.07058333571133 -174.12769303621536 -8.313525152723741 -181.8299672417022
lfemur -28.433033162643866 -18.599972195587288 -12.414015166066479
ltibia 26.59418675165675
lfoot 26.853409558458516 -45.52122565848478
ltoes 50.773514007026705
rfemur 18.179858671779503 -9.071969911740252 23.47466831321325
rtibia 10.242235982642185
rfoot 35.79627689607917 -35.78906054918225
rtoes 25.8377347509582
lowerback -12.152576059526275 15.289530472909577 15.804073117690653
upperback -15.500090361012408 19.141061335121435 1.0655870948117732
thorax -6.6669904404109825 8.12887718159589 -5.796512118290171
lowerneck -12.488281143323466 -18.861867903420734 -3.897692377971657
upperneck 12.996297879216511 -25.489831233734968 1.3005855060912745
head 6.563625469825032 -12.391953858499466 -1.345604966909858
lclavicle 1.0127975397219166e-14 -5.6317670578326655e-15
lhumerus 70.71565954344227 23.23780800216459 44.01424042777873
lradius 63.26277020398382
lwrist 22.255252644462068
lhand -20.867562991768455 13.095177017262364
lfingers 7.12502
lthumb -174.49767046246814 -18.945959389267998
rclavicle 1.0127975397219168e-14 -5.631767057832665e-15
rhumerus 109.98269642936258 25.377600517087412 -54.19067149087391
rradius 63.98767429610526
rwrist -4.645180818993304
rhand -43.4831694344809 22.37308734680992
rfingers 7.12502
rthumb -16.32510638510032 -6.728921331117235
